<?xml version="1.0" encoding="UTF-8" standalone="no"?>
<svg width="24px" height="24px" viewBox="0 0 24 24" version="1.1" xmlns="http://www.w3.org/2000/svg" xmlns:xlink="http://www.w3.org/1999/xlink" xmlns:sketch="http://www.bohemiancoding.com/sketch/ns">
    <!-- Generator: Sketch 3.4.4 (17249) - http://www.bohemiancoding.com/sketch -->
    <title>Artboard 1</title>
    <desc>Created with Sketch.</desc>
    <defs></defs>
    <g id="Page-1" stroke="none" stroke-width="1" fill="none" fill-rule="evenodd" sketch:type="MSPage">
        <g id="Artboard-1" sketch:type="MSArtboardGroup" fill="#FFFFFF">
            <path d="M0,12.0009488 C0,18.6183831 5.38314642,24 12.0011858,24 C18.6187507,24 23.9999995,18.6164855 23.9999995,12.0009488 C24.0018971,5.38351453 18.6187507,0 12.0011858,0 C5.38314642,0 0,5.38351453 0,12.0009488 Z M10.0437642,7.78873295 C9.9422402,7.72373987 9.81414912,7.72373987 9.71025301,7.78114252 C9.60683132,7.84044278 9.54183696,7.95002965 9.54183696,8.07052777 L9.54183696,15.9313698 C9.54183696,16.051868 9.60683132,16.1614548 9.71025301,16.2202807 C9.76054063,16.2482704 9.81604676,16.2629769 9.8715529,16.2629769 C9.93085433,16.2629769 9.9920534,16.2463728 10.0437642,16.2150623 L16.4468952,12.2846412 C16.5450984,12.225341 16.6043998,12.1176517 16.6043998,12.0028464 C16.6043998,11.8880411 16.5450984,11.7822495 16.4468952,11.7210516 L10.0437642,7.78873295 Z" id="Path" sketch:type="MSShapeGroup"></path>
            <path d="M0,12.0009488 C0,18.6183831 5.38314642,24 12.0011858,24 C18.6187507,24 23.9999995,18.6164855 23.9999995,12.0009488 C24.0018971,5.38351453 18.6187507,0 12.0011858,0 C5.38314642,0 0,5.38351453 0,12.0009488 Z M12.0011858,23.3382091 C5.74844322,23.3382091 0.661329524,18.2516703 0.661329524,11.9990512 C0.661329524,5.7464321 5.74844322,0.65989326 12.0011858,0.65989326 C18.2534539,0.65989326 23.3405676,5.7464321 23.3405676,11.9990512 C23.3405676,18.2516703 18.2534539,23.3382091 12.0011858,23.3382091 L12.0011858,23.3382091 Z" id="Page-1" sketch:type="MSShapeGroup"></path>
        </g>
    </g>
</svg>