<?xml version="1.0" encoding="UTF-8" standalone="no"?>
<svg width="24px" height="21px" viewBox="0 0 24 21" version="1.1" xmlns="http://www.w3.org/2000/svg" xmlns:xlink="http://www.w3.org/1999/xlink" xmlns:sketch="http://www.bohemiancoding.com/sketch/ns">
    <!-- Generator: Sketch 3.3.3 (12081) - http://www.bohemiancoding.com/sketch -->
    <title>add-to-favs-added</title>
    <desc>Created with Sketch.</desc>
    <defs></defs>
    <g id="Search" stroke="none" stroke-width="1" fill="none" fill-rule="evenodd" sketch:type="MSPage">
        <g id="Search-spaces-list" sketch:type="MSArtboardGroup" transform="translate(-841.000000, -477.000000)" fill="#FFFFFF">
            <g id="Requests-Copy" sketch:type="MSLayerGroup" transform="translate(450.000000, 100.000000)">
                <g id="Venue-#1-Copy-5" transform="translate(25.000000, 367.000000)" sketch:type="MSShapeGroup">
                    <g id="add-to-favs-added" transform="translate(366.000000, 10.000000)">
                        <path d="M17.00992,0.0968507463 L17.00992,0.0968507463 C19.6224,0.0968507463 21.8064,1.42016418 23.00128,3.72702985 C24.4736,6.57237313 24.08864,10.3163284 22.0464,13.0441343 C19.8864,15.927403 17.34112,17.5302985 14.11872,19.5600896 C13.6576,19.8515821 13.1776,20.1540448 12.67744,20.4721791 L12.00256,20.9031493 L11.3264,20.4721791 C10.82624,20.152791 10.34624,19.8515821 9.88512,19.5600896 C6.66112,17.5315522 4.11616,15.9286567 1.95744,13.0453881 C-0.0864,10.3175821 -0.47008,6.57237313 1.00128,3.72702985 C2.19488,1.42016418 4.3776,0.0968507463 6.99136,0.0968507463 L7.0336,0.0968507463 C9.40128,0.110328358 11.0336,1.22426866 12.00128,2.1830597 C12.96864,1.22301493 14.6,0.110328358 16.96736,0.0968507463 L17.00992,0.0968507463 Z" id="Shape"></path>
                    </g>
                </g>
            </g>
        </g>
    </g>
</svg>