<?xml version="1.0" encoding="UTF-8" standalone="no"?>
<svg width="24px" height="21px" viewBox="0 0 24 21" version="1.1" xmlns="http://www.w3.org/2000/svg" xmlns:xlink="http://www.w3.org/1999/xlink" xmlns:sketch="http://www.bohemiancoding.com/sketch/ns">
    <!-- Generator: Sketch 3.3.3 (12081) - http://www.bohemiancoding.com/sketch -->
    <title>add-to-favs-hover</title>
    <desc>Created with Sketch.</desc>
    <defs></defs>
    <g id="Search" stroke="none" stroke-width="1" fill="none" fill-rule="evenodd" sketch:type="MSPage">
        <g id="Search-spaces-list" sketch:type="MSArtboardGroup" transform="translate(-1261.000000, -217.000000)" fill="#FFFFFF">
            <g id="Requests-Copy" sketch:type="MSLayerGroup" transform="translate(450.000000, 100.000000)">
                <g id="Venue-#1-Copy" transform="translate(445.000000, 107.000000)" sketch:type="MSShapeGroup">
                    <g id="add-to-favs-hover" transform="translate(366.000000, 10.000000)">
                        <g id="Imported-Layers">
                            <path d="M13.4101159,3.60263051 L12.002433,4.99966848 L10.5936068,3.60378348 C9.65420639,2.67301229 8.48301137,2.10513367 7.0336,2.09685075 C5.1241391,2.09685075 3.6271565,3.00416429 2.77780936,4.64569378 C1.66568134,6.7963476 1.96563083,9.72088353 3.558434,11.8467145 C5.1946694,14.0321329 6.65962011,15.1676517 10.9537843,17.8695403 C11.0941251,17.9582554 11.659017,18.3146395 11.659017,18.3146395 L12.0179376,18.5219253 C12.0179376,18.5219253 12.5990564,18.154324 13.0527654,17.8678305 C14.2284089,17.1272922 14.7193516,16.8142389 15.3087512,16.423669 C17.6822146,14.8508763 19.1475391,13.5779138 20.4453823,11.8454925 C22.0373535,9.7191075 22.3372488,6.79566076 21.2253708,4.64689201 C20.3747797,3.00471938 18.8764121,2.09685075 17.00992,2.09685075 C15.5176554,2.10513647 14.3471576,2.67267485 13.4101159,3.60263051 Z M17.00992,0.0968507463 L17.00992,0.0968507463 C19.6224,0.0968507463 21.8064,1.42016418 23.00128,3.72702985 C24.4736,6.57237313 24.08864,10.3163284 22.0464,13.0441343 C19.8864,15.927403 17.34112,17.5302985 14.11872,19.5600896 C13.6576,19.8515821 13.1776,20.1540448 12.67744,20.4721791 L12.00256,20.9031493 L11.3264,20.4721791 C10.82624,20.152791 10.34624,19.8515821 9.88512,19.5600896 C6.66112,17.5315522 4.11616,15.9286567 1.95744,13.0453881 C-0.0864,10.3175821 -0.47008,6.57237313 1.00128,3.72702985 C2.19488,1.42016418 4.3776,0.0968507463 6.99136,0.0968507463 L7.0336,0.0968507463 C9.40128,0.110328358 11.0336,1.22426866 12.00128,2.1830597 C12.96864,1.22301493 14.6,0.110328358 16.96736,0.0968507463 L17.00992,0.0968507463 Z" id="Shape"></path>
                            <path d="M17.00992,2.09685075 L17.00992,2.09685075 L16.978746,2.09681834 C15.5176554,2.10513647 14.3471576,2.67267485 13.4101159,3.60263051 L12.002433,4.99966848 L10.5936068,3.60378348 C9.65420639,2.67301229 8.48301137,2.10513367 7.0336,2.09685075 L6.99136,2.09685075 C5.1241391,2.09685075 3.6271565,3.00416429 2.77780936,4.64569378 C1.66568134,6.7963476 1.96563083,9.72088353 3.558434,11.8467145 C5.1946694,14.0321329 6.65962011,15.1676517 10.9537843,17.8695403 C11.0941251,17.9582554 11.5876701,18.2695836 11.659017,18.3146395 C11.9472445,18.4966567 12.1763989,18.6419714 12.4013695,18.7856322 L13.0775295,19.2166023 L12.00256,20.9031493 L10.9261419,19.2175265 L11.6040476,18.784628 C11.9824286,18.543953 12.3496955,18.3117824 13.0527654,17.8678305 C14.2284089,17.1272922 14.7193516,16.8142389 15.3087512,16.423669 C17.6822146,14.8508763 19.1475391,13.5779138 20.4453823,11.8454925 C22.0373535,9.7191075 22.3372488,6.79566076 21.2253708,4.64689201 C20.3747797,3.00471938 18.8764121,2.09685075 17.00992,2.09685075 L17.00992,2.09685075 Z" id="Path-Copy" fill-opacity="0.3"></path>
                        </g>
                    </g>
                </g>
            </g>
        </g>
    </g>
</svg>