<?xml version="1.0" encoding="UTF-8" standalone="no"?>
<svg width="24px" height="24px" viewBox="0 0 24 24" version="1.1" xmlns="http://www.w3.org/2000/svg" xmlns:xlink="http://www.w3.org/1999/xlink" xmlns:sketch="http://www.bohemiancoding.com/sketch/ns">
    <!-- Generator: Sketch 3.4.4 (17249) - http://www.bohemiancoding.com/sketch -->
    <title>Artboard 1</title>
    <desc>Created with Sketch.</desc>
    <defs></defs>
    <g id="Page-1" stroke="none" stroke-width="1" fill="none" fill-rule="evenodd" sketch:type="MSPage">
        <g id="Artboard-1" sketch:type="MSArtboardGroup" fill="#E4E4E4">
            <g id="Page-1" sketch:type="MSLayerGroup">
                <path d="M12,24 C5.38368,24 0,18.61632 0,12 C0,5.38368 5.38368,0 12,0 C18.61632,0 24,5.38368 24,12 C24,18.61632 18.61632,24 12,24 L12,24 Z M12,2.21632 C6.60512,2.21632 2.21632,6.60512 2.21632,12 C2.21632,17.39488 6.60512,21.78368 12,21.78368 C17.39488,21.78368 21.78368,17.39488 21.78368,12 C21.78368,6.60512 17.39488,2.21632 12,2.21632 L12,2.21632 Z" id="Fill-1" sketch:type="MSShapeGroup"></path>
                <path d="M12,2.21632 C6.60512,2.21632 2.21632,6.60512 2.21632,12 C2.21632,17.39488 6.60512,21.78368 12,21.78368 C17.39488,21.78368 21.78368,17.39488 21.78368,12 C21.78368,6.60512 17.39488,2.21632 12,2.21632 L12,2.21632 Z" id="Path" fill-opacity="0.187018795" sketch:type="MSShapeGroup"></path>
                <path d="M17.91136,10.76864 L13.23136,10.76864 L13.23136,6.08864 C13.23136,5.40864 12.68,4.8576 12,4.8576 C11.32,4.8576 10.76864,5.40864 10.76864,6.08864 L10.76864,10.76864 L6.08864,10.76864 C5.40864,10.76864 4.8576,11.32 4.8576,12 C4.8576,12.68 5.40864,13.23136 6.08864,13.23136 L10.76864,13.23136 L10.76864,17.91136 C10.76864,18.59136 11.32,19.1424 12,19.1424 C12.68,19.1424 13.23136,18.59136 13.23136,17.91136 L13.23136,13.23136 L17.91136,13.23136 C18.59136,13.23136 19.1424,12.68 19.1424,12 C19.1424,11.32 18.59136,10.76864 17.91136,10.76864 L17.91136,10.76864 Z" id="Fill-2" sketch:type="MSShapeGroup"></path>
            </g>
        </g>
    </g>
</svg>