<?xml version="1.0" encoding="UTF-8" standalone="no"?>
<svg width="88px" height="96px" viewBox="0 0 88 96" version="1.1" xmlns="http://www.w3.org/2000/svg" xmlns:xlink="http://www.w3.org/1999/xlink" xmlns:sketch="http://www.bohemiancoding.com/sketch/ns">
    <!-- Generator: Sketch 3.5.1 (25234) - http://www.bohemiancoding.com/sketch -->
    <title>logo</title>
    <desc>Created with Sketch.</desc>
    <defs></defs>
    <g id="Page-1" stroke="none" stroke-width="1" fill="none" fill-rule="evenodd" sketch:type="MSPage">
        <g id="header-logo-c-dark" sketch:type="MSLayerGroup" transform="translate(0.000000, -1.000000)">
            <g id="Assets-(Web)" sketch:type="MSShapeGroup">
                <g id="header-logo-c-dark">
                    <g id="logo">
                        <path d="M44.017,32.188 C34.943,32.188 27.56,39.572 27.56,48.643 C27.56,57.721 34.943,65.108 44.017,65.108 C53.088,65.108 60.475,57.721 60.475,48.643 C60.475,39.571 53.088,32.188 44.017,32.188 M44.017,68.493 C33.071,68.493 24.166,59.594 24.166,48.642 C24.166,37.701 33.071,28.798 44.017,28.798 C54.961,28.798 63.866,37.7 63.866,48.642 C63.866,59.594 54.961,68.493 44.017,68.493" id="7" fill="#003366"></path>
                        <path d="M44.4994987,32 C35.4020659,32 28,39.4019441 28,48.4949878 C28,57.5950486 35.4020659,65 44.4994987,65 C53.5939237,65 61,57.5950486 61,48.4949878 C61,39.4009417 53.5939237,32 44.4994987,32" id="7" fill="#FFFFFF"></path>
                        <circle id="Oval-1" stroke="#003366" stroke-width="2" fill="#FFFFFF" cx="44.0600014" cy="48.6900005" r="16.5"></circle>
                        <path d="M3.849,32.543 L3.849,64.752 C11.314,63.166 16.921,56.429 16.921,48.643 C16.921,40.867 11.314,34.121 3.849,32.543 L3.849,32.543 L3.849,32.543 Z M0.459,68.586 L0.459,28.709 L2.314,28.882 C12.57,29.837 20.308,38.33 20.308,48.643 C20.308,58.961 12.571,67.455 2.314,68.417 L0.459,68.586 L0.459,68.586 L0.459,68.586 Z" id="6" fill="#003366"></path>
                        <path d="M9.989,75.373 L37.884,91.482 C40.24,84.229 37.204,75.998 30.469,72.115 C27.966,70.662 25.132,69.902 22.257,69.902 C17.558,69.902 13.096,71.921 9.989,75.373 L9.989,75.373 L9.989,75.373 Z M39.504,96.337 L4.969,76.396 L6.05,74.878 C9.775,69.642 15.832,66.511 22.256,66.511 C25.724,66.511 29.147,67.439 32.163,69.179 C41.093,74.337 44.582,85.287 40.281,94.65 L39.504,96.337 L39.504,96.337 L39.504,96.337 Z" id="5" fill="#003366"></path>
                        <path d="M65.778,69.902 C62.908,69.902 60.068,70.662 57.566,72.115 C50.831,75.998 47.791,84.229 50.151,91.482 L78.046,75.373 C74.942,71.921 70.476,69.902 65.778,69.902 L65.778,69.902 L65.778,69.902 Z M48.53,96.337 L47.754,94.648 C43.452,85.286 46.942,74.336 55.87,69.177 C58.887,67.437 62.31,66.509 65.778,66.509 C72.201,66.509 78.262,69.64 81.979,74.876 L83.059,76.394 L48.53,96.337 L48.53,96.337 L48.53,96.337 Z" id="4" fill="#003366"></path>
                        <path d="M84.183,32.543 C76.717,34.126 71.111,40.871 71.111,48.643 C71.111,56.42 76.717,63.166 84.183,64.752 L84.183,32.543 L84.183,32.543 L84.183,32.543 Z M87.572,68.586 L85.717,68.417 C75.459,67.455 67.723,58.953 67.723,48.643 C67.723,38.334 75.459,29.841 85.717,28.882 L87.572,28.709 L87.572,68.586 L87.572,68.586 L87.572,68.586 Z" id="3" fill="#003366"></path>
                        <path d="M50.142,5.805 C49.143,8.827 49.053,12.041 49.895,15.186 C51.033,19.432 53.755,22.982 57.566,25.181 C60.066,26.625 62.908,27.389 65.778,27.389 C70.476,27.389 74.941,25.371 78.046,21.912 L50.142,5.805 L50.142,5.805 L50.142,5.805 Z M65.778,30.777 C62.314,30.777 58.886,29.862 55.87,28.114 C51.276,25.463 47.994,21.187 46.619,16.062 C45.423,11.592 45.824,6.826 47.754,2.647 L48.53,0.955 L83.059,20.896 L81.984,22.411 C78.261,27.654 72.204,30.777 65.778,30.777 L65.778,30.777 L65.778,30.777 Z" id="2" fill="#003366"></path>
                        <path d="M9.989,21.912 C13.094,25.371 17.558,27.389 22.259,27.389 C25.129,27.389 27.968,26.625 30.471,25.181 C34.274,22.982 36.997,19.432 38.138,15.186 C38.98,12.042 38.89,8.828 37.887,5.805 L9.989,21.912 L9.989,21.912 L9.989,21.912 Z M22.259,30.777 C15.833,30.777 9.774,27.65 6.054,22.411 L4.973,20.896 L39.505,0.955 L40.284,2.647 C42.206,6.83 42.61,11.592 41.411,16.062 C40.041,21.183 36.756,25.462 32.166,28.114 C29.147,29.857 25.724,30.777 22.259,30.777 L22.259,30.777 L22.259,30.777 Z" id="1" fill="#003366"></path>
                    </g>
                </g>
            </g>
        </g>
    </g>
</svg>