<?xml version="1.0" encoding="UTF-8" standalone="no"?>
<svg width="64px" height="64px" viewBox="0 0 64 64" version="1.1" xmlns="http://www.w3.org/2000/svg" xmlns:xlink="http://www.w3.org/1999/xlink" xmlns:sketch="http://www.bohemiancoding.com/sketch/ns">
    <!-- Generator: Sketch 3.4.4 (17249) - http://www.bohemiancoding.com/sketch -->
    <title>filmreel</title>
    <desc>Created with Sketch.</desc>
    <defs>
        <path id="path-1" d="M0.06,0.04 L64,0.04 L64,64 L0.06,64"></path>
    </defs>
    <g id="Page-1" stroke="none" stroke-width="1" fill="none" fill-rule="evenodd" sketch:type="MSPage">
        <g id="filmreel" sketch:type="MSLayerGroup">
            <g id="Group-3">
                <mask id="mask-2" sketch:name="Clip 2" fill="white">
                    <use xlink:href="#path-1"></use>
                </mask>
                <g id="Clip-2"></g>
                <path d="M64,32 C64,49.673 49.673,64 32,64 C14.327,64 0,49.673 0,32 C0,14.327 14.327,0 32,0 C49.673,0 64,14.327 64,32" id="Fill-1" fill="#76ABC5" sketch:type="MSShapeGroup" mask="url(#mask-2)"></path>
            </g>
            <path d="M34.689,46.723 C34.55,46.48 34.43,46.225 34.328,45.96 C38.061,45.29 41.243,43.036 43.157,39.92 C43.264,40.017 43.367,40.118 43.466,40.222 C41.655,43.509 38.472,45.933 34.689,46.723 M29.255,46.712 C25.481,45.906 22.309,43.472 20.511,40.181 C20.61,40.078 20.714,39.979 20.821,39.884 C22.722,43.003 25.892,45.264 29.613,45.95 C29.513,46.214 29.393,46.469 29.255,46.712 M44.768,35.953 C44.945,35.16 45.05,34.34 45.077,33.5 C45.081,33.638 45.083,33.777 45.083,33.917 C45.083,34.601 45.031,35.273 44.929,35.929 C44.876,35.937 44.822,35.945 44.768,35.953 M19.231,35.947 C19.177,35.939 19.123,35.931 19.069,35.922 C18.969,35.268 18.917,34.599 18.917,33.917 C18.917,33.777 18.919,33.638 18.923,33.5 C18.949,34.338 19.054,35.156 19.231,35.947" id="Fill-4" fill="#638DA1" sketch:type="MSShapeGroup"></path>
            <path d="M45.083,33.083 C45.083,40.309 39.226,46.167 32,46.167 C24.774,46.167 18.917,40.309 18.917,33.083 C18.917,25.858 24.774,20 32,20 C39.226,20 45.083,25.858 45.083,33.083" id="Fill-5" fill="#4B5665" sketch:type="MSShapeGroup"></path>
            <path d="M45.083,32 C45.083,39.226 39.226,45.083 32,45.083 C24.774,45.083 18.917,39.226 18.917,32 C18.917,24.774 24.774,18.917 32,18.917 C39.226,18.917 45.083,24.774 45.083,32" id="Fill-6" fill="#4B5665" sketch:type="MSShapeGroup"></path>
            <path d="M32,56 C19.85,56 10,46.15 10,34 C10,21.85 19.85,12 32,12 C44.15,12 54,21.85 54,34 C54,46.15 44.15,56 32,56 M34.689,46.723 C35.637,48.382 37.422,49.5 39.469,49.5 C42.507,49.5 44.969,47.037 44.969,44 C44.969,42.537 44.398,41.208 43.466,40.222 C44.189,38.912 44.693,37.465 44.929,35.929 C47.545,35.504 49.542,33.235 49.542,30.5 C49.542,27.462 47.079,25 44.042,25 C43.722,25 43.41,25.027 43.105,25.079 C41.725,22.87 39.705,21.102 37.303,20.036 C36.662,17.709 34.531,16 32,16 C29.469,16 27.338,17.709 26.697,20.036 C24.298,21.101 22.279,22.867 20.899,25.073 C20.606,25.025 20.306,25 20,25 C16.962,25 14.5,27.462 14.5,30.5 C14.5,33.22 16.475,35.479 19.069,35.922 C19.303,37.444 19.8,38.879 20.511,40.181 C19.556,41.17 18.969,42.517 18.969,44 C18.969,47.037 21.431,49.5 24.469,49.5 C26.521,49.5 28.31,48.377 29.255,46.712 C30.14,46.901 31.058,47 32,47 C32.922,47 33.821,46.905 34.689,46.723" id="animate-fill" class="do-animate" fill="#638DA1" sketch:type="MSShapeGroup"></path>
            <path d="M32,47 C31.058,47 30.14,46.901 29.255,46.712 C29.393,46.469 29.513,46.214 29.613,45.95 C30.387,46.092 31.185,46.167 32,46.167 C32.795,46.167 33.573,46.096 34.328,45.96 C34.43,46.225 34.55,46.48 34.689,46.723 C33.821,46.905 32.922,47 32,47 M43.466,40.222 C43.367,40.118 43.264,40.017 43.157,39.92 C43.898,38.713 44.449,37.377 44.768,35.953 C44.822,35.945 44.876,35.937 44.929,35.929 C44.693,37.465 44.189,38.912 43.466,40.222 M20.511,40.181 C19.8,38.879 19.303,37.444 19.069,35.922 C19.123,35.931 19.177,35.939 19.231,35.947 C19.546,37.359 20.09,38.685 20.821,39.884 C20.714,39.979 20.61,40.078 20.511,40.181" id="Fill-8" fill="#577685" sketch:type="MSShapeGroup"></path>
            <path d="M32,46.167 C31.185,46.167 30.387,46.092 29.613,45.95 C29.739,45.619 29.833,45.272 29.893,44.915 C30.579,45.026 31.283,45.083 32,45.083 C32.696,45.083 33.38,45.029 34.046,44.924 C34.107,45.282 34.202,45.629 34.328,45.96 C33.573,46.096 32.795,46.167 32,46.167 M43.157,39.92 C43.009,39.786 42.854,39.66 42.692,39.543 C43.453,38.465 44.056,37.268 44.466,35.984 C44.567,35.976 44.668,35.966 44.768,35.953 C44.449,37.377 43.898,38.713 43.157,39.92 M20.821,39.884 C20.09,38.685 19.546,37.359 19.231,35.947 C19.331,35.961 19.432,35.972 19.533,35.981 C19.939,37.254 20.535,38.442 21.288,39.513 C21.125,39.628 20.969,39.752 20.821,39.884" id="Fill-9" fill="#414A55" sketch:type="MSShapeGroup"></path>
            <path d="M32,45.083 C31.283,45.083 30.579,45.026 29.893,44.915 C29.943,44.617 29.969,44.312 29.969,44 C29.969,40.962 27.507,38.5 24.469,38.5 C23.284,38.5 22.186,38.875 21.288,39.513 C20.535,38.442 19.939,37.254 19.533,35.981 C19.687,35.993 19.843,36 20,36 C23.037,36 25.5,33.538 25.5,30.5 C25.5,27.769 23.509,25.502 20.899,25.073 C22.279,22.867 24.298,21.101 26.697,20.036 C26.569,20.502 26.5,20.993 26.5,21.5 C26.5,24.537 28.962,27 32,27 C35.037,27 37.5,24.537 37.5,21.5 C37.5,20.993 37.431,20.502 37.303,20.036 C39.705,21.102 41.725,22.87 43.105,25.079 C40.514,25.524 38.542,27.782 38.542,30.5 C38.542,33.538 41.004,36 44.042,36 C44.184,36 44.326,35.995 44.466,35.984 C44.056,37.268 43.453,38.465 42.692,39.543 C41.786,38.887 40.673,38.5 39.469,38.5 C36.431,38.5 33.969,40.962 33.969,44 C33.969,44.315 33.995,44.624 34.046,44.924 C33.38,45.029 32.696,45.083 32,45.083" id="Fill-10" fill="#414A55" sketch:type="MSShapeGroup"></path>
            <path d="M44.042,34 C41.004,34 38.542,31.538 38.542,28.5 C38.542,25.462 41.004,23 44.042,23 C47.079,23 49.542,25.462 49.542,28.5 C49.542,31.538 47.079,34 44.042,34 L44.042,34 Z M39.469,47.5 C36.431,47.5 33.969,45.037 33.969,42 C33.969,38.962 36.431,36.5 39.469,36.5 C42.507,36.5 44.969,38.962 44.969,42 C44.969,45.037 42.507,47.5 39.469,47.5 L39.469,47.5 Z M26.5,19.5 C26.5,16.462 28.962,14 32,14 C35.037,14 37.5,16.462 37.5,19.5 C37.5,22.538 35.037,25 32,25 C28.962,25 26.5,22.538 26.5,19.5 L26.5,19.5 Z M24.469,47.5 C21.431,47.5 18.969,45.037 18.969,42 C18.969,38.962 21.431,36.5 24.469,36.5 C27.507,36.5 29.969,38.962 29.969,42 C29.969,45.037 27.507,47.5 24.469,47.5 L24.469,47.5 Z M14.5,28.5 C14.5,25.462 16.962,23 20,23 C23.037,23 25.5,25.462 25.5,28.5 C25.5,31.538 23.037,34 20,34 C16.962,34 14.5,31.538 14.5,28.5 L14.5,28.5 Z M32,10 C19.85,10 10,19.85 10,32 C10,44.15 19.85,54 32,54 C44.15,54 54,44.15 54,32 C54,19.85 44.15,10 32,10 L32,10 Z" id="animate-fill" class="do-animate" fill="#FFFFFF" sketch:type="MSShapeGroup"></path>
        </g>
    </g>
</svg>